<mxfile host="app.diagrams.net" modified="2023-09-20T01:03:06.980Z" agent="Mozilla/5.0 (Windows NT 10.0; Win64; x64) AppleWebKit/537.36 (KHTML, like Gecko) Chrome/113.0.0.0 Safari/537.36 OPR/99.0.0.0" version="21.7.5" etag="XqTRjsyXMfW4YxpUZhKw" type="github">
  <diagram name="PÃ¡gina-1" id="5181wRwIorW3Kg9A7Kzl">
    <mxGraphModel>
      <root>
        <mxCell id="0" />
        <mxCell id="1" parent="0" />
      </root>
    </mxGraphModel>
  </diagram>
</mxfile>
